<svg xmlns="http://www.w3.org/2000/svg" width="31" height="31" viewBox="0 0 31 31" fill="none">
  <path d="M24.4413 3.87651C23.8449 3.87651 23.2485 4.10356 22.7959 4.55615L19.9896 7.3625L5.86699 21.4835L3.5874 27.4111L9.51646 25.133L9.57397 25.074L26.4438 8.2041C27.349 7.29892 27.349 5.82007 26.4438 4.9164L26.0836 4.55615C25.6325 4.10356 25.0361 3.87651 24.4413 3.87651ZM24.4413 4.64697C24.8363 4.64697 25.2314 4.79985 25.5372 5.1041L25.8959 5.46284C26.5044 6.07285 26.5044 7.04765 25.8959 7.65615L25.575 7.97705L23.0229 5.425L23.3438 5.1041C23.6481 4.79985 24.0447 4.64697 24.4413 4.64697ZM22.475 5.97295L25.0271 8.525L23.6375 9.91455L21.0854 7.3625L22.475 5.97295ZM20.5375 7.91045L23.0896 10.4625L9.5543 23.9978C9.48618 23.7843 9.38022 23.5573 9.18647 23.3635C8.9019 23.079 8.54316 22.9745 8.26162 22.9185C8.17231 22.9003 8.17231 22.9094 8.09966 22.9003C8.09058 22.8277 8.09966 22.8277 8.08149 22.7384C8.02549 22.4568 7.92104 22.0981 7.63647 21.8135C7.44272 21.6198 7.21567 21.5138 7.00225 21.4457L20.5375 7.91045ZM20.5375 8.9125C20.3241 8.9125 20.15 9.08657 20.15 9.3C20.15 9.51342 20.3241 9.6875 20.5375 9.6875C20.7509 9.6875 20.925 9.51342 20.925 9.3C20.925 9.08657 20.7509 8.9125 20.5375 8.9125ZM19.375 10.075C19.1616 10.075 18.9875 10.2491 18.9875 10.4625C18.9875 10.6759 19.1616 10.85 19.375 10.85C19.5884 10.85 19.7625 10.6759 19.7625 10.4625C19.7625 10.2491 19.5884 10.075 19.375 10.075ZM18.2125 11.2375C17.9991 11.2375 17.825 11.4116 17.825 11.625C17.825 11.8384 17.9991 12.0125 18.2125 12.0125C18.4259 12.0125 18.6 11.8384 18.6 11.625C18.6 11.4116 18.4259 11.2375 18.2125 11.2375ZM17.05 12.4C16.8366 12.4 16.6625 12.5741 16.6625 12.7875C16.6625 13.0009 16.8366 13.175 17.05 13.175C17.2634 13.175 17.4375 13.0009 17.4375 12.7875C17.4375 12.5741 17.2634 12.4 17.05 12.4ZM15.8875 13.5625C15.6741 13.5625 15.5 13.7366 15.5 13.95C15.5 14.1634 15.6741 14.3375 15.8875 14.3375C16.1009 14.3375 16.275 14.1634 16.275 13.95C16.275 13.7366 16.1009 13.5625 15.8875 13.5625ZM14.725 14.725C14.5116 14.725 14.3375 14.8991 14.3375 15.1125C14.3375 15.3259 14.5116 15.5 14.725 15.5C14.9384 15.5 15.1125 15.3259 15.1125 15.1125C15.1125 14.8991 14.9384 14.725 14.725 14.725ZM13.5625 15.8875C13.3491 15.8875 13.175 16.0616 13.175 16.275C13.175 16.4884 13.3491 16.6625 13.5625 16.6625C13.7759 16.6625 13.95 16.4884 13.95 16.275C13.95 16.0616 13.7759 15.8875 13.5625 15.8875ZM12.4 17.05C12.1866 17.05 12.0125 17.2241 12.0125 17.4375C12.0125 17.6509 12.1866 17.825 12.4 17.825C12.6134 17.825 12.7875 17.6509 12.7875 17.4375C12.7875 17.2241 12.6134 17.05 12.4 17.05ZM11.2375 18.2125C11.0241 18.2125 10.85 18.3866 10.85 18.6C10.85 18.8134 11.0241 18.9875 11.2375 18.9875C11.4509 18.9875 11.625 18.8134 11.625 18.6C11.625 18.3866 11.4509 18.2125 11.2375 18.2125ZM10.075 19.375C9.86157 19.375 9.6875 19.5491 9.6875 19.7625C9.6875 19.9759 9.86157 20.15 10.075 20.15C10.2884 20.15 10.4625 19.9759 10.4625 19.7625C10.4625 19.5491 10.2884 19.375 10.075 19.375ZM8.9125 20.5375C8.69907 20.5375 8.525 20.7116 8.525 20.925C8.525 21.1384 8.69907 21.3125 8.9125 21.3125C9.12593 21.3125 9.3 21.1384 9.3 20.925C9.3 20.7116 9.12593 20.5375 8.9125 20.5375ZM6.45581 22.1132C6.49214 22.1193 6.51938 22.1208 6.56025 22.1284C6.76309 22.1692 6.9856 22.2585 7.08853 22.3615C7.19145 22.4644 7.28076 22.6869 7.32163 22.8897C7.3625 23.0926 7.3625 23.25 7.3625 23.25V23.6375H7.75C7.75 23.6375 7.90742 23.6375 8.11025 23.6784C8.31309 23.7192 8.5356 23.8085 8.63853 23.9115C8.74146 24.0144 8.83076 24.2369 8.87163 24.4397C8.8792 24.4806 8.88071 24.5079 8.88677 24.5442L6.20151 25.5765L5.42349 24.7985L6.45581 22.1132Z" fill="black"/>
</svg>