  <svg
    xmlns="http://www.w3.org/2000/svg"
    width="26"
    height="26"
    viewBox="0 0 26 26"
    fill="none"
  >
    <path
      d="M15.806 17.328L17.3381 15.7959L23.8495 22.3071L22.3174 23.8392L15.806 17.328Z"
      fill="#616161"
    />
    <path
      d="M10.8333 2.16666C8.53475 2.16666 6.33035 3.07975 4.70503 4.70506C3.07972 6.33038 2.16663 8.53478 2.16663 10.8333C2.16663 13.1319 3.07972 15.3363 4.70503 16.9616C6.33035 18.5869 8.53475 19.5 10.8333 19.5C13.1318 19.5 15.3362 18.5869 16.9616 16.9616C18.5869 15.3363 19.5 13.1319 19.5 10.8333C19.5 8.53478 18.5869 6.33038 16.9616 4.70506C15.3362 3.07975 13.1318 2.16666 10.8333 2.16666Z"
      fill="#616161"
    />
    <path
      d="M17.5802 19.143L19.1122 17.6109L23.8234 22.3219L22.2914 23.854L17.5802 19.143Z"
      fill="#37474F"
    />
    <path
      d="M10.8333 3.79166C8.96573 3.79166 7.17465 4.53354 5.85408 5.85411C4.53351 7.17468 3.79163 8.96576 3.79163 10.8333C3.79163 12.7009 4.53351 14.492 5.85408 15.8125C7.17465 17.1331 8.96573 17.875 10.8333 17.875C12.7009 17.875 14.4919 17.1331 15.8125 15.8125C17.1331 14.492 17.875 12.7009 17.875 10.8333C17.875 8.96576 17.1331 7.17468 15.8125 5.85411C14.4919 4.53354 12.7009 3.79166 10.8333 3.79166Z"
      fill="#64B5F6"
    />
    <path
      d="M14.5708 7.69168C13.65 6.60834 12.2958 5.95834 10.8333 5.95834C9.37082 5.95834 8.01665 6.60834 7.09582 7.69168C6.87915 7.90834 6.93332 8.28751 7.14998 8.45001C7.36665 8.66668 7.74582 8.61251 7.90832 8.39584C8.66665 7.52918 9.69582 7.04168 10.8333 7.04168C11.9708 7.04168 13 7.52918 13.7583 8.39584C13.8666 8.50418 14.0291 8.61251 14.1916 8.61251C14.3 8.61251 14.4625 8.55834 14.5166 8.50418C14.7333 8.28751 14.7333 7.90834 14.5708 7.69168Z"
      fill="#BBDEFB"
    />
  </svg>