<svg xmlns="http://www.w3.org/2000/svg" shape-rendering="geometricPrecision" text-rendering="geometricPrecision" image-rendering="optimizeQuality" fill-rule="evenodd" clip-rule="evenodd" viewBox="0 0 512 476.263"><path d="M78.923 209.101c50.836-19.144 14.419-104.655 29.057-147.072 20.559-59.487 96.563-79.814 138.909-45.009 33.2-3.535 66.655 13.591 73.876 64.784 5.901 41.874-25.69 107.602 22.869 130.955-22.361 21.424-56.883 23.245-86.085 24.811v17.941l24.876 33.237-71.185 56.62-71.111-56.112 18.99-31.895v-19.282c-31.335-1.486-58.346-2.953-80.196-28.978zm314.197 29.404c32.823 0 62.547 13.307 84.06 34.82 21.512 21.512 34.82 51.234 34.82 84.057 0 32.824-13.308 62.548-34.82 84.06-21.513 21.513-51.237 34.821-84.06 34.821-32.824 0-62.545-13.308-84.058-34.821a119.36 119.36 0 01-20.39-27.247H6.293A6.29 6.29 0 010 407.903C0 307.254 70.177 288.4 147.183 258.806c-16.278 17.634-30.241 36.395-41.264 58.513l31.917-.777 71.663 57.231 70.767-53.841a118.565 118.565 0 0117.61-33.693c-6.878-9.607-14.406-18.66-22.505-27.433 11.884 4.598 23.62 8.901 34.972 13.26 21.404-20.771 50.6-33.561 82.777-33.561zm-21.898 69.614l-.015-2.864c.093-6.046 1.259-10.017 9.758-9.886l21.772.271c4.525-.017 7.539.867 9.605 3.072 2.043 2.18 2.738 5.208 2.691 9.528l.015 26.579c9.438 0 18.88.037 28.317-.005 5.945.082 9.851 1.247 9.724 9.979l-.262 22.54c.022 4.607-.82 7.672-2.92 9.786-2.142 2.155-5.121 2.886-9.365 2.838l-25.494.015-.014 26.854c.014 4.164-.696 7.103-2.692 9.23l-.254.242c-2.066 2.031-5.014 2.849-9.351 2.829l-21.772.271c-8.493.132-9.663-3.833-9.758-9.873.039-9.851.011-19.702.004-29.553l-25.812-.013c-4.086.009-6.972-.735-9.066-2.84-2.101-2.114-2.94-5.181-2.92-9.784l-.262-22.542c-.128-8.732 3.781-9.894 9.721-9.981 9.447.041 18.893.013 28.339.007l.011-26.7zm21.898-51.74c55.785 0 101.006 45.22 101.006 101.003 0 55.786-45.221 101.007-101.006 101.007-55.784 0-101.004-45.221-101.004-101.007 0-55.783 45.22-101.003 101.004-101.003z"/></svg>